<svg width="32" height="32" viewBox="0 0 32 32" fill="none" xmlns="http://www.w3.org/2000/svg">
  <!-- Blue rounded background matching sidebar -->
  <rect width="32" height="32" rx="6" fill="#2563EB"/>
  
  <!-- Trophy icon simplified and centered -->
  <g transform="translate(8, 6)">
    <!-- Cup top -->
    <path d="M12 3H4L3 0H13L12 3Z" fill="white"/>
    <!-- Cup body -->
    <path d="M4 3V14C4 15.1046 4.89543 16 6 16H10C11.1046 16 12 15.1046 12 14V3H4Z" fill="white"/>
    <!-- Cup handles -->
    <path d="M2 5V7C2 8.10457 2.89543 9 4 9H4.5V7H3V5H2Z" fill="white"/>
    <path d="M14 5V7C14 8.10457 13.1046 9 12 9H11.5V7H13V5H14Z" fill="white"/>
    <!-- Base -->
    <rect x="5" y="18" width="6" height="2" fill="white"/>
    <rect x="4" y="20" width="8" height="1" fill="white"/>
  </g>
</svg>
